<?xml version="1.0" encoding="UTF-8" standalone="no"?>
<svg
   xmlns:dc="http://purl.org/dc/elements/1.1/"
   xmlns:cc="http://creativecommons.org/ns#"
   xmlns:rdf="http://www.w3.org/1999/02/22-rdf-syntax-ns#"
   xmlns:svg="http://www.w3.org/2000/svg"
   xmlns="http://www.w3.org/2000/svg"
   xmlns:sodipodi="http://sodipodi.sourceforge.net/DTD/sodipodi-0.dtd"
   xmlns:inkscape="http://www.inkscape.org/namespaces/inkscape"
   id="svg1554"
   version="1.1"
   width="147.98071"
   height="114.06595"
   sodipodi:docname="zoom-wars-plain.svg"
   inkscape:version="0.92.4 (unknown)">
  <sodipodi:namedview
     pagecolor="#ffffff"
     bordercolor="#666666"
     borderopacity="1"
     objecttolerance="10"
     gridtolerance="10"
     guidetolerance="10"
     inkscape:pageopacity="0"
     inkscape:pageshadow="2"
     inkscape:window-width="1350"
     inkscape:window-height="731"
     id="namedview972"
     showgrid="false"
     fit-margin-left="10"
     fit-margin-right="10"
     fit-margin-bottom="10"
     fit-margin-top="10"
     inkscape:zoom="2.116966"
     inkscape:cx="140.65265"
     inkscape:cy="70.732966"
     inkscape:window-x="3848"
     inkscape:window-y="29"
     inkscape:window-maximized="0"
     inkscape:current-layer="svg1554" />
  <metadata
     id="metadata1560">
    <rdf:RDF>
      <cc:Work
         rdf:about="">
        <dc:format>image/svg+xml</dc:format>
        <dc:type
           rdf:resource="http://purl.org/dc/dcmitype/StillImage" />
        <dc:title></dc:title>
      </cc:Work>
    </rdf:RDF>
  </metadata>
  <defs
     id="defs1558" />
  <clipPath
     id="a">
    <path
       id="path1514"
       d="M -200,-175 H 800 V 387 H -200 Z"
       inkscape:connector-curvature="0" />
  </clipPath>
  <clipPath
     id="b">
    <path
       style="clip-rule:evenodd"
       id="path1517"
       d="m 370,89 a 24,24 0 1 1 -34,0 24,24 0 0 1 34,0 z M 353,66 a 40,40 0 1 1 -0.05,0 z m 101,23 a 24,24 0 1 1 -34,0 24,24 0 0 1 34,0 z M 465.3,77.7 A 40,40 0 1 1 437,66 40,40 0 0 1 465.28,77.72 Z m -212.3,68.1 4,0.2 h 60 l -0.2,-4 c -0.54,-6.6 -5.2,-11.4 -11.8,-11.8 l -4,-0.2 h -36 l 48,-48 -0.2,-4 A 12.1,12.1 0 0 0 301,66.2 L 297,66 h -60 l 0.2,4 A 12.41,12.41 0 0 0 249,81.8 l 4,0.2 h 36 l -48,48 0.2,4 A 12.23,12.23 0 0 0 253,145.8 Z M 526.84,90 a 17.29,17.29 0 0 1 2,8 l 0.2,4 v 28 l 0.2,4 A 12.29,12.29 0 0 0 541,145.8 l 4,0.2 v -44 l 0.2,-4 a 17.44,17.44 0 0 1 2,-8.05 16,16 0 0 1 27.69,0.05 17.54,17.54 0 0 1 1.94,8 l 0.2,4 v 28 l 0.2,4 A 12.24,12.24 0 0 0 589,145.8 l 4,0.2 V 98 A 32,32 0 0 0 537,76.83 32,32 0 0 0 495.08,71.48 C 492,68 485,66 481,66 v 80 l 4,-0.2 c 6.68,-0.44 11.54,-5.16 11.8,-11.8 l 0.2,-4 v -28 l 0.2,-4 a 17.45,17.45 0 0 1 2,-8 16,16 0 0 1 27.68,0 z"
       inkscape:connector-curvature="0" />
  </clipPath>
  <clipPath
     id="c">
    <circle
       id="circle1520"
       r="102"
       cy="106"
       cx="107" />
  </clipPath>
  <clipPath
     id="d">
    <circle
       id="circle1523"
       r="100"
       cy="106"
       cx="107" />
  </clipPath>
  <clipPath
     id="e">
    <circle
       id="circle1526"
       r="92"
       cy="106"
       cx="107" />
  </clipPath>
  <clipPath
     id="f">
    <path
       style="clip-rule:evenodd"
       id="path1529"
       d="m 135,94.06 26,-19 c 2.27,-1.85 4,-1.42 4,2 V 135 c 0,3.84 -2.16,3.4 -4,2 L 135,118 Z M 47,77.2 v 43.2 A 17.69,17.69 0 0 0 64.77,138 h 63 A 3.22,3.22 0 0 0 131,134.8 V 91.6 A 17.69,17.69 0 0 0 113.23,74 h -63 A 3.22,3.22 0 0 0 47,77.2 Z"
       inkscape:connector-curvature="0" />
  </clipPath>
  <g
     transform="matrix(0.189959,0,0,0.189959,-35.020283,75.984347)"
     clip-path="url(#b)"
     id="g1534">
    <path
       d="m 232,61 h 366 v 90 H 232 Z"
       id="path1532"
       style="fill:#4a8cff"
       inkscape:connector-curvature="0" />
  </g>
  <g
     transform="matrix(0.189959,0,0,0.189959,55.742868,9.240164)"
     clip-path="url(#c)"
     id="g1538">
    <path
       d="M 0,-1 H 214 V 213 H 0 Z"
       id="path1536"
       style="fill:#e5e5e4"
       inkscape:connector-curvature="0" />
  </g>
  <g
     transform="matrix(0.189959,0,0,0.189959,55.742868,9.240164)"
     clip-path="url(#d)"
     id="g1542">
    <path
       d="M 2,1 H 212 V 211 H 2 Z"
       id="path1540"
       style="fill:#ffffff"
       inkscape:connector-curvature="0" />
  </g>
  <g
     transform="matrix(0.189959,0,0,0.189959,55.742868,9.240164)"
     clip-path="url(#e)"
     id="g1546">
    <path
       d="M 10,9 H 204 V 203 H 10 Z"
       id="path1544"
       style="fill:#4a8cff"
       inkscape:connector-curvature="0" />
  </g>
  <g
     transform="matrix(0.189959,0,0,0.189959,55.742868,9.240164)"
     clip-path="url(#f)"
     id="g1550">
    <path
       d="m 42,69 h 128 v 74 H 42 Z"
       id="path1548"
       style="fill:#ffffff"
       inkscape:connector-curvature="0" />
  </g>
  <g
     transform="matrix(0.17466258,-0.30218638,0.30252447,0.17446738,22.975316,51.870783)"
     id="g2136"
     style="fill:#4a8cff;fill-opacity:1;stroke:#4a8cff;stroke-width:1.04756904;stroke-opacity:1">
    <path
       id="path2130"
       d="m 49.56833,49.73001 c 0,0 11.946721,10.228502 11.946721,31.070636 V 199.53488 H 38.019834 V 80.800646 C 38.458639,59.507123 49.56833,49.73001 49.56833,49.73001 Z"
       style="opacity:1;vector-effect:none;fill:#4a8cff;fill-opacity:1;stroke:#4a8cff;stroke-width:5.23784542;stroke-linecap:square;stroke-linejoin:miter;stroke-miterlimit:4;stroke-dasharray:none;stroke-dashoffset:0;stroke-opacity:1"
       inkscape:connector-curvature="0" />
    <rect
       style="opacity:1;vector-effect:none;fill:#4a8cff;fill-opacity:1;stroke:#4a8cff;stroke-width:5.23784542;stroke-linecap:square;stroke-linejoin:miter;stroke-miterlimit:4;stroke-dasharray:none;stroke-dashoffset:0;stroke-opacity:1"
       id="rect2132"
       width="11.627908"
       height="40.930237"
       x="43.953487"
       y="194.88373"
       rx="0"
       ry="0" />
    <rect
       y="194.41861"
       x="24.186047"
       height="9.7674417"
       width="51.162792"
       id="rect2134"
       style="opacity:1;vector-effect:none;fill:#4a8cff;fill-opacity:1;stroke:#4a8cff;stroke-width:5.23784542;stroke-linecap:square;stroke-linejoin:miter;stroke-miterlimit:4;stroke-dasharray:none;stroke-dashoffset:0;stroke-opacity:1" />
  </g>
  <g
     id="g2144"
     transform="matrix(0.17466258,0.30218638,-0.30252447,0.17446738,109.11418,21.792696)"
     style="stroke:#4a8cff;stroke-width:1.04756904;stroke-opacity:1">
    <path
       style="opacity:1;vector-effect:none;fill:#ffffff;fill-opacity:1;stroke:#4a8cff;stroke-width:5.23784542;stroke-linecap:square;stroke-linejoin:miter;stroke-miterlimit:4;stroke-dasharray:none;stroke-dashoffset:0;stroke-opacity:1"
       d="m 49.56833,49.73001 c 0,0 11.946721,10.228502 11.946721,31.070636 V 199.53488 H 38.019834 V 80.800646 C 38.458639,59.507123 49.56833,49.73001 49.56833,49.73001 Z"
       id="path2138"
       inkscape:connector-curvature="0" />
    <rect
       ry="0"
       rx="0"
       y="194.88373"
       x="43.953487"
       height="40.930237"
       width="11.627908"
       id="rect2140"
       style="opacity:1;vector-effect:none;fill:#ffffff;fill-opacity:1;stroke:#4a8cff;stroke-width:5.23784542;stroke-linecap:square;stroke-linejoin:miter;stroke-miterlimit:4;stroke-dasharray:none;stroke-dashoffset:0;stroke-opacity:1" />
    <rect
       style="opacity:1;vector-effect:none;fill:#ffffff;fill-opacity:1;stroke:#4a8cff;stroke-width:5.23784542;stroke-linecap:square;stroke-linejoin:miter;stroke-miterlimit:4;stroke-dasharray:none;stroke-dashoffset:0;stroke-opacity:1"
       id="rect2142"
       width="51.162792"
       height="9.7674417"
       x="24.186047"
       y="194.41861" />
  </g>
  <text
     xml:space="preserve"
     style="font-style:normal;font-variant:normal;font-weight:normal;font-stretch:normal;font-size:20.93526077px;line-height:1.25;font-family:'Open Sans';-inkscape-font-specification:'Open Sans';letter-spacing:0px;word-spacing:0px;fill:#ffffff;fill-opacity:1;stroke:none;stroke-width:0.99999994"
     x="83.945663"
     y="103.8615"
     id="text976"><tspan
       sodipodi:role="line"
       id="tspan974"
       x="83.945663"
       y="103.8615"
       style="font-style:normal;font-variant:normal;font-weight:300;font-stretch:normal;font-family:'Open Sans';-inkscape-font-specification:'Open Sans Light';fill:#ffffff;fill-opacity:1;stroke-width:0.99999994">WARS</tspan></text>
</svg>
